<svg xmlns="http://www.w3.org/2000/svg" xmlns:xlink="http://www.w3.org/1999/xlink" version="1.1" x="0px" y="0px" viewBox="0 0 64.08 89.1" enable-background="new 0 0 64.08 71.28" xml:space="preserve"><path fill-rule="evenodd" clip-rule="evenodd" d="M41.782,25.03c-7.842,3.421-14.756,7.77-19.66,14.129  c-0.324-1.481,1.667-3.508,3.071-4.914c3.004-3.003,9.025-7.576,12.595-9.522C38.841,24.149,40.584,23.565,41.782,25.03z"/><path fill-rule="evenodd" clip-rule="evenodd" d="M36.866,34.245c-2.374-0.311-4.628,3.183-6.45,3.38  C31.486,35.848,35.035,31.322,36.866,34.245z"/><path fill-rule="evenodd" clip-rule="evenodd" d="M53.455,51.754c3.139-0.752,5.506-2.275,8.908-2.764  c0.406,3.887-1.403,5.56-1.537,8.908c-7.407,4.451-18.79,7.351-29.488,9.215c-3.724,0.649-9.937,0.765-12.595-0.923  c-1.144-0.725-4.334-5.527-4.915-7.063c-3.777-10.007-2.512-26.359-4.915-37.168c-2.522,0.651-3.785,2.562-6.451,3.071  c-0.54-5.188,1.711-10.136,3.993-13.516c10.269-5.077,25.644-7.326,38.705-7.679c4.232,3.146,5.725,10.179,6.758,17.201  C53.322,30.575,51.974,42.542,53.455,51.754z M7.686,13.05C12.824,22.25,11,38.479,13.521,50.525  c1.218,5.818,3.421,13.083,8.601,14.438c0.94-2.131,0.907-5.235,1.536-7.679c9.41-0.558,18.098-2.23,26.724-4.3  c1.452-15.755,1.956-35.822-5.529-46.692C30.974,5.938,18.071,8.917,7.686,13.05z M3.999,21.959  c1.436-0.511,3.128-0.764,4.608-1.229c-0.396-2.572-0.912-5.027-2.458-6.45C4.92,16.326,3.944,18.627,3.999,21.959z M60.182,50.699  c-9.387,4.96-23.163,6.702-36.216,8.734c0.093,1.938-0.049,3.638-0.307,5.222c11.675,1.019,17.218-1.691,27.59-4.303  c2.373-0.694,5.931-1.494,8.349-3.068c0.7-2.064,1.471-4.061,1.537-6.759C60.74,50.509,60.679,50.611,60.182,50.699z"/><text x="0" y="86.28" fill="#000000" font-size="5px" font-weight="bold" font-family="'Helvetica Neue', Helvetica, Arial-Unicode, Arial, Sans-serif">Created by James Cottell</text><text x="0" y="91.28" fill="#000000" font-size="5px" font-weight="bold" font-family="'Helvetica Neue', Helvetica, Arial-Unicode, Arial, Sans-serif">from the Noun Project</text></svg>