<svg xmlns="http://www.w3.org/2000/svg" data-name="Layer 1" viewBox="0 0 100 125" x="0px" y="0px"><path d="m33.81,11.45c-.05.36-.05.73.06,1.1l10.2,34.48,1.23-2.56,2.89-5.98-4.93-10.22-8.8-18.27c-.04.05-.07.11-.11.17-.29.37-.47.81-.54,1.28Z"/><path d="m64.1,84.23s.02.05.03.09c.93,2.34,2.81,4.2,5.17,5.09,2.4.9,4.98.76,7.27-.41,3.63-1.85,5.56-6.07,4.6-10.03-.64-2.61-2.3-4.7-4.69-5.89l-1.06-.53c-.99-.49-2.01-.99-3.01-1.56-6.58-3.84-12.4-7.75-16.28-15.69l-2.42,1.21,10.37,27.68s.01.03.01.04Zm1.81-11.28c3.33-2.47,10.28,2.9,11.66,4.74.97,1.31,1.37,2.91,1.14,4.52-.24,1.61-1.09,3.04-2.4,4.01-1.06.8-2.32,1.21-3.63,1.21-.29,0-.59-.02-.89-.07-1.61-.23-3.03-1.08-4.01-2.39-1.36-1.83-5.29-9.48-1.88-12.04Z"/><path d="m55.53,51.94l10.6-39.36c.27-.94.02-1.91-.58-2.57l-19.98,41.45,2.58,4.2,7.38-3.72Zm-4.99-4.06c1.05,0,1.9.85,1.9,1.9s-.85,1.91-1.9,1.91-1.91-.86-1.91-1.91.86-1.9,1.91-1.9Z"/><path d="m23.51,73.07c-2.34,1.18-4.04,3.33-4.68,5.9-.97,3.96.97,8.18,4.59,10.03,2.33,1.19,4.94,1.33,7.35.39,2.3-.88,4.13-2.69,5.05-4.97l9.92-26.45-1.77-2.87c-3.89,8.1-9.75,12.02-16.39,15.87-1.02.59-2.09,1.11-3.12,1.62l-.96.47Zm10.59-.12c1.48,1.11,1.74,3.29.77,6.48-.62,2.01-1.71,4.28-2.65,5.56-.98,1.31-2.4,2.16-4.01,2.39-.31.04-.6.07-.89.07-1.31,0-2.57-.41-3.63-1.21-1.61-1.2-2.45-3.03-2.45-4.89,0-1.26.39-2.55,1.2-3.64,1.38-1.84,8.34-7.22,11.66-4.74Z"/><text x="0" y="115" fill="#000000" font-size="5px" font-weight="bold" font-family="'Helvetica Neue', Helvetica, Arial-Unicode, Arial, Sans-serif">Created by Uswa KDT</text><text x="0" y="120" fill="#000000" font-size="5px" font-weight="bold" font-family="'Helvetica Neue', Helvetica, Arial-Unicode, Arial, Sans-serif">from the Noun Project</text></svg>